<?xml version="1.0" encoding="UTF-8"?>
<svg width="127px" height="22px" viewBox="0 0 127 22" version="1.1" xmlns="http://www.w3.org/2000/svg" xmlns:xlink="http://www.w3.org/1999/xlink">
    <!-- Generator: Sketch 53.2 (72643) - https://sketchapp.com -->
    <title>CI</title>
    <desc>Created with Sketch.</desc>
    <g id="首页" stroke="none" stroke-width="1" fill="none" fill-rule="evenodd">
        <g id="画板" transform="translate(-987.000000, -707.000000)">
            <g id="CI" transform="translate(987.000000, 707.000000)">
                <path d="M124.452266,5.56212027 L124.452266,20.8085662 C124.452266,21.2661068 124.833037,21.6371338 125.302594,21.6371338 L126.806457,21.6371338 L126.806457,6.39068784 C126.806457,5.9331473 126.425685,5.56212027 125.955671,5.56212027 L124.452266,5.56212027 Z" id="Fill-20" fill="#FFFFFF"></path>
                <path d="M116.284773,15.7955934 L119.866127,15.7955934 L119.866127,13.1671275 L116.284773,13.1671275 L116.284773,15.7955934 Z M119.866579,10.8931514 L116.284773,10.8931514 L116.284773,7.01286583 C116.284773,6.55709331 115.909403,6.1875 115.446958,6.1875 L113.956757,6.1875 L113.956757,17.0496342 C113.956757,17.5054067 114.331676,17.875 114.795023,17.875 L121.35678,17.875 C121.819225,17.875 122.194595,17.5054067 122.194595,17.0496342 L122.194595,7.01286583 C122.194595,6.55709331 121.819225,6.1875 121.35678,6.1875 L119.866579,6.1875 L119.866579,10.8931514 Z" id="Fill-23" fill="#FFFFFF"></path>
                <path d="M100.953183,10.8347228 C100.953183,9.45624743 101.993863,8.41668905 103.373177,8.41668905 L105.317798,8.41668905 C106.698029,8.41668905 107.73825,9.45624743 107.73825,10.8347228 C107.73825,12.2131982 106.698029,13.2527566 105.317798,13.2527566 L103.373177,13.2527566 C101.993863,13.2527566 100.953183,12.2131982 100.953183,10.8347228 M110.443191,18.4897772 L105.53713,18.4897772 L105.53713,15.4627875 C108.057612,15.2693813 109.910462,13.3462667 109.910462,10.8347228 C109.910462,8.18542266 107.850669,6.1875 105.118655,6.1875 L103.560389,6.1875 C100.835717,6.1875 98.7809712,8.18542266 98.7809712,10.8347228 C98.7809712,13.3499159 100.634739,15.2748551 103.154304,15.4632437 L103.154304,18.4897772 L96.7945946,18.4897772 L96.7945946,19.1790149 C96.7945946,19.9763594 97.4461665,20.625 98.2477835,20.625 L111.897297,20.625 L111.897297,19.93485 C111.897297,19.1379617 111.244808,18.4897772 110.443191,18.4897772" id="Fill-18" fill="#FFFFFF"></path>
                <path d="M81.0054054,16.5 L81.0054054,17.7694284 C81.0054054,18.23063 81.3871599,18.6046259 81.8579292,18.6046259 L87.3649211,18.6046259 L87.3649211,20.4773024 C87.3649211,20.9385041 87.7466756,21.3125 88.2174449,21.3125 L89.7485924,21.3125 L89.7485924,18.6046259 L96.1081081,18.6046259 L96.1081081,17.3351976 C96.1081081,16.8739959 95.7263536,16.5 95.2555843,16.5 L81.0054054,16.5 Z" id="Fill-26" fill="#FFFFFF"></path>
                <path d="M86.1912708,12.3752344 C86.1912708,11.6101475 86.8588312,11.0550844 87.7782483,11.0550844 L89.3352652,11.0550844 C90.2551504,11.0550844 90.9222427,11.6101475 90.9222427,12.3752344 C90.9222427,13.1398525 90.2551504,13.6949156 89.3352652,13.6949156 L87.7782483,13.6949156 C86.8588312,13.6949156 86.1912708,13.1398525 86.1912708,12.3752344 L86.1912708,12.3752344 Z M87.9280515,8.9375 C85.5471171,8.9375 83.7513514,10.4151679 83.7513514,12.3752344 C83.7513514,14.3348321 85.5471171,15.8125 87.9280515,15.8125 L89.1756312,15.8125 C91.5626514,15.8125 93.3621622,14.3348321 93.3621622,12.3752344 C93.3621622,10.4151679 91.5626514,8.9375 89.1756312,8.9375 L87.9280515,8.9375 Z" id="Fill-27" fill="#FFFFFF"></path>
                <path d="M93.8923815,6.56409688 L89.735795,6.56409688 L89.735795,6.10962192 C89.735795,5.69291833 89.3582123,5.5 88.8921337,5.5 L87.3781723,5.5 L87.3781723,6.56409688 L82.3783784,6.56409688 L82.3783784,7.49579087 C82.3783784,7.91249446 82.7559611,8.25 83.2215859,8.25 L94.7351351,8.25 L94.7351351,7.31871215 C94.7351351,6.90200857 94.3575524,6.56409688 93.8923815,6.56409688" id="Fill-25" fill="#FFFFFF"></path>
                <path d="M71.4736368,21.3125 L73.4540541,21.3125 L73.4540541,10.4542928 C73.4540541,9.99633889 73.1119278,9.625 72.6885253,9.625 L70.7081081,9.625 L70.7081081,20.4836679 C70.7081081,20.9416218 71.0506599,21.3125 71.4736368,21.3125" id="Fill-5" fill="#2596E0"></path>
                <path d="M72.4243243,8.9375 C73.3720073,8.9375 74.1405405,8.16783211 74.1405405,7.21875 C74.1405405,6.26966789 73.3720073,5.5 72.4243243,5.5 C71.4766414,5.5 70.7081081,6.26966789 70.7081081,7.21875 C70.7081081,8.16783211 71.4766414,8.9375 72.4243243,8.9375" id="Fill-7" fill="#2596E0"></path>
                <path d="M65.7543516,16.3471727 C65.7543516,17.7738577 64.5853893,18.7233474 63.1567568,18.7233474 C61.7285704,18.7233474 60.5591619,17.7738577 60.5591619,16.3471727 L60.5591619,14.3114064 C60.5591619,12.8847213 61.7285704,11.9347861 63.1567568,11.9347861 C64.5853893,11.9347861 65.7543516,12.8847213 65.7543516,14.3114064 L65.7543516,16.3471727 Z M63.1567568,9.34607907 L63.1567568,9.34607907 C62.2131097,9.34607907 61.3225568,9.55638367 60.5444384,9.9382291 L60.5444384,6.30156351 C60.5444384,5.85912184 60.1852725,5.5 59.7417807,5.5 L57.6648649,5.5 L57.6648649,16.1515716 C57.6648649,19.1680169 60.1361939,21.3125 63.1567568,21.3125 C66.1773196,21.3125 68.6486486,19.1680169 68.6486486,16.1515716 L68.6486486,14.5199287 C68.6486486,11.5034835 66.1773196,9.34607907 63.1567568,9.34607907 L63.1567568,9.34607907 Z" id="Fill-11" fill="#2596E0"></path>
                <path d="M52.7111083,16.1776376 C52.7111083,17.6530351 51.542146,18.6349439 50.1135135,18.6349439 C48.6853272,18.6349439 47.5159187,17.6530351 47.5159187,16.1776376 L47.5159187,14.0723624 C47.5159187,12.5969649 48.6853272,11.6145954 50.1135135,11.6145954 C51.542146,11.6145954 52.7111083,12.5969649 52.7111083,14.0723624 L52.7111083,16.1776376 Z M50.1139597,8.9375 L50.1135135,8.9375 C47.0929507,8.9375 44.6216216,11.1685664 44.6216216,14.2880045 L44.6216216,15.9753579 C44.6216216,19.094796 47.0929507,21.3125 50.1135135,21.3125 L50.1139597,21.3125 C53.1340764,21.3125 55.6054054,19.094796 55.6054054,15.9753579 L55.6054054,14.2880045 C55.6054054,11.1685664 53.1340764,8.9375 50.1139597,8.9375 L50.1139597,8.9375 Z" id="Fill-9" fill="#FFFFFF"></path>
                <path d="M39.5944062,8.9375 L39.5944062,16.6111895 C39.5944062,17.3078336 39.2409709,17.968977 38.6409103,18.3179907 C36.9654163,19.2917249 35.231704,18.0750182 35.231704,16.4714918 L35.231704,9.76692606 C35.231704,9.30910501 34.8626828,8.9375 34.4074802,8.9375 L32.2648649,8.9375 L32.2648649,16.7453546 C32.2648649,19.2571463 34.3084633,21.3125 36.8058891,21.3125 L38.0202211,21.3125 C40.5185637,21.3125 42.5621622,19.2571463 42.5621622,16.7453546 L42.5621622,9.76692606 C42.5621622,9.30910501 42.1926825,8.9375 41.7370215,8.9375 L39.5948646,8.9375 L39.5944062,8.9375 Z" id="Fill-3" fill="#FFFFFF"></path>
                <path d="M27.2183831,5.5 L27.2183831,11.766472 L20.8356709,11.766472 L20.8356709,6.31243752 C20.8356709,5.86399369 20.4626403,5.5 20.0026,5.5 L17.8486486,5.5 L17.8486486,20.5000625 C17.8486486,20.9485063 18.2216793,21.3125 18.6812568,21.3125 L20.8356709,21.3125 L20.8356709,14.3135246 L27.2183831,14.3135246 L27.2183831,20.5000625 C27.2183831,20.9485063 27.5914138,21.3125 28.0514541,21.3125 L30.2054054,21.3125 L30.2054054,6.31243752 C30.2054054,5.86399369 29.8323747,5.5 29.3727972,5.5 L27.2183831,5.5 Z" id="Fill-1" fill="#FFFFFF"></path>
                <path d="M11.5878812,8.95237646 C11.5623363,8.93635566 11.5267558,8.92491223 11.5021232,8.96381989 C11.4341554,9.72549458 10.6066819,11.3545812 9.55797101,12.8504664 C6.00038234,17.9249409 8.02755557,20.3706307 9.1674984,21.6843364 C9.82938597,22.4473843 9.1674984,21.6843364 10.8215331,20.9052677 C10.9510824,20.843931 14.0493184,19.2102669 14.3850518,15.4884058 C14.7098375,11.8841832 12.4076,9.61243349 11.5878812,8.95237646" id="Fill-16" fill="#2596E0"></path>
                <path d="M9.07864209,6.84307024 C9.07864209,3.71891408 7.59580685,1.03285168 6.46778496,0.158033199 C6.46333867,0.154838765 6.3819717,0.107834955 6.38864113,0.232874217 C6.38864113,0.234699607 6.38686261,0.235155955 6.38686261,0.236524998 C6.29304605,6.26852852 3.29091605,7.90316588 1.64045596,10.1054997 C-2.16867433,15.1873874 1.373679,20.7593925 4.98094806,21.7889128 C6.99956035,22.3652799 4.51497765,20.7694321 4.19528993,17.3988482 C3.80801872,13.3250326 9.07864209,10.2154795 9.07864209,6.84307024" id="Fill-13" fill="#FFFFFF"></path>
            </g>
        </g>
    </g>
</svg>